# xmcd CD database file
#
# Track frame offsets:
#	150
#	15430
#	27373
#	51602
#	71690
#	81277
#	99609
#	108232
#	136230
#	152372
#	168543
#	195827
#	218328
#	235157
#	258922
#	295463
#	309364
#
# Disc length: 4334 seconds
#
# Revision: 0
# Processed by: cddbd v1.5.2PL0 Copyright (c) Steve Scherf et al.
# Submitted via: CDex 1.51
#
DISCID=de10ec11
DTITLE=Toots Thielemans - Yesterday and Today [CD2)
DYEAR=2012
DGENRE=Jazz
TTITLE0=Chump Change
TTITLE1=Love Theme From 'The Getaway'
TTITLE2=There Is No Greater Love
TTITLE3=That Misty Red Animal: Dat Mistige Rooie Beest
TTITLE4=Black Beauty
TTITLE5=Big Bossa
TTITLE6=The Slickest Man In Town
TTITLE7=The Late Night Wizard
TTITLE8=Fritiof Anderssons Paradmarsch
TTITLE9=Bye Bye Blackbird
TTITLE10=Midnight Sun
TTITLE11=Midnight Sun
TTITLE12=Spartacus: Love Theme
TTITLE13=What Kind Of Fool Am I
TTITLE14=Someone To Watch Over Me
TTITLE15=Circle Of Smiles: Main Theme from 'BAANTJER'
TTITLE16=What A Wonderful World
EXTD=YEAR: 2012
EXTT0=
EXTT1=
EXTT2=
EXTT3=
EXTT4=
EXTT5=
EXTT6=
EXTT7=
EXTT8=
EXTT9=
EXTT10=
EXTT11=
EXTT12=
EXTT13=
EXTT14=
EXTT15=
EXTT16=
PLAYORDER=
